<svg xmlns="http://www.w3.org/2000/svg" viewBox="0 0 400 400">
  <defs>
    <radialGradient id="bg5" cx="50%" cy="40%" r="65%">
      <stop offset="0%" stop-color="#fdf5e0"/>
      <stop offset="100%" stop-color="#e8c55a"/>
    </radialGradient>
  </defs>
  <rect width="400" height="400" rx="36" fill="url(#bg5)"/>
  <ellipse cx="200" cy="315" rx="118" ry="28" fill="#9c7d2e" opacity="0.18"/>
  <path d="M90 255c18-56 66-113 124-131 43-14 78-4 100 24 18 23 17 52-2 77-21 28-56 51-88 69-34 19-67 30-96 23-29-7-50-31-38-62z" fill="#f4d17d" stroke="#b98c31" stroke-width="6"/>
  <path d="M123 237c22-40 64-77 105-86 29-6 54 2 66 20 10 15 9 34-3 51-13 18-36 35-60 49-27 15-55 26-78 20-22-6-39-25-30-54z" fill="#f8e4a6" opacity="0.92"/>
</svg>
