<svg xmlns="http://www.w3.org/2000/svg" viewBox="0 0 400 400">
  <defs>
    <radialGradient id="bg6" cx="50%" cy="40%" r="65%">
      <stop offset="0%" stop-color="#fdf2cc"/>
      <stop offset="100%" stop-color="#e0b84a"/>
    </radialGradient>
  </defs>
  <rect width="400" height="400" rx="36" fill="url(#bg6)"/>
  <ellipse cx="200" cy="320" rx="126" ry="26" fill="#8e6e22" opacity="0.18"/>
  <g fill="#f3d789" stroke="#b38425" stroke-width="5">
    <path d="M86 257c15-42 50-83 89-98 27-10 52-7 71 8 17 14 24 35 19 55-7 26-30 48-56 65-24 15-52 27-79 24-33-4-56-27-44-54z"/>
    <path d="M163 249c13-37 42-72 74-84 22-8 42-5 57 8 13 11 18 28 14 43-5 20-23 38-43 51-21 13-45 24-67 22-28-2-46-22-35-40z" fill="#f9e8b6"/>
  </g>
</svg>
