<svg xmlns="http://www.w3.org/2000/svg" viewBox="0 0 400 400">
  <defs>
    <linearGradient id="boxGrad" x1="0%" y1="0%" x2="100%" y2="100%">
      <stop offset="0%" stop-color="#2a1a08"/>
      <stop offset="100%" stop-color="#1a0e04"/>
    </linearGradient>
  </defs>
  <rect width="400" height="400" rx="36" fill="#f7f0de"/>
  <rect x="70" y="105" width="260" height="190" rx="22" fill="url(#boxGrad)"/>
  <rect x="60" y="95" width="280" height="24" rx="10" fill="#d7b159"/>
  <rect x="188" y="88" width="24" height="214" rx="8" fill="#d7b159"/>
  <path d="M164 98c-28-34-74-39-84-4-8 26 13 49 49 39 17-5 31-17 35-35z" fill="#e8c36d"/>
  <path d="M236 98c28-34 74-39 84-4 8 26-13 49-49 39-17-5-31-17-35-35z" fill="#e8c36d"/>
  <text x="200" y="345" font-size="28" font-family="Georgia, serif" text-anchor="middle" fill="#6f551d">Better Health Gift Set</text>
</svg>
